<?xml version="1.0" encoding="UTF-8"?>
<svg id="a" xmlns="http://www.w3.org/2000/svg" version="1.1" viewBox="0 0 621.4 623.8">
  <!-- Generator: Adobe Illustrator 30.2.1, SVG Export Plug-In . SVG Version: 2.1.1 Build 1)  -->
  <defs>
    <style>
      .st0, .st1 {
        fill: #32cce0;
      }

      .st1 {
        fill-rule: evenodd;
      }

      .st2 {
        fill: #1075ad;
      }
    </style>
  </defs>
  <path class="st0" d="M520.5,206c-6.8,4.1-23.8,21-27.7,55.5v216.9c0,40.7-33,73.7-73.7,73.7h-247.8c-40.7,0-73.7-33-73.7-73.7v-247.7c0-40.7,33-73.7,73.7-73.7h132.4c36.9-5.3,61.9-21.7,71.3-30.6,1.5-1.4.5-3.9-1.6-3.9h-202.1c-59.8,0-108.2,48.4-108.2,108.2v247.7c0,59.8,48.5,108.2,108.2,108.2h247.7c59.8,0,108.2-48.5,108.2-108.2v-247.8c0-9.1-.5-15.6-2.7-24.1-.4-1.5-2.8-1.4-4.1-.6h0Z"/>
  <path class="st2" d="M408.4,231.9h-43.4c-5.1,0-9.2,4.1-9.2,9.2v84c0,1.9-1.5,3.4-3.4,3.4h-114.5c-1.9,0-3.4-1.5-3.4-3.4v-84c0-5.1-4.1-9.2-9.2-9.2h-43.3c-5.1,0-9.2,4.1-9.2,9.2v226.6c0,5.1,4.1,9.2,9.2,9.2h43.4c5.1,0,9.2-4.1,9.2-9.2v-87.8c0-1.9,1.5-3.4,3.4-3.4h114.5c1.9,0,3.4,1.5,3.4,3.4v87.8c0,5.1,4.1,9.2,9.2,9.2h43.4c5.1,0,9.2-4.1,9.2-9.2v-226.6c0-5.1-4.1-9.2-9.2-9.2Z"/>
  <path class="st1" d="M388.3,160.1c-2.2-.6-4.5-1.1-6.8-1.6-.4,0-.7-.1-1.1-.2h-.1s-.1,0-.1,0c-.2,0-.5,0-1-.2h-.2c-3.6-.7-3.6-5.9,0-6.6h.2c.5-.1.8-.2,1-.2h.1s.1,0,.1,0c.4,0,.7-.1,1.1-.2,2.3-.4,4.5-1,6.8-1.6,1.9-.5,3.8-1.1,5.6-1.7,30.1-10,53.7-33.7,63.7-63.7.6-1.9,1.2-3.7,1.7-5.7.6-2.2,1.1-4.5,1.6-6.8,0-.4.1-.7.2-1.1h0c0-.1,0-.3,0-.3,0-.2,0-.5.2-1h0s0-.2,0-.2c.7-3.7,5.9-3.7,6.6,0v.2c.1.5.2.8.2,1v.2s0,.1,0,.1c0,.4.1.7.2,1.1.5,2.3,1,4.6,1.6,6.8.5,1.9,1.1,3.8,1.7,5.7,10,30.1,33.7,53.7,63.7,63.7,1.9.6,3.7,1.2,5.7,1.7,2.2.6,4.5,1.1,6.8,1.6.4,0,.7.1,1.1.2h.1s.2,0,.2,0c.2,0,.5,0,1,.2h.2c3.7.7,3.7,5.9,0,6.6h-.2s-.5.1-.5.1h-.5c0,0-.2.1-.2.1h-.1c-.4,0-.7.2-1.1.2-2.3.4-4.5,1-6.8,1.6-1.9.5-3.8,1.1-5.7,1.7-30.1,10-53.7,33.7-63.7,63.7-.6,1.9-1.2,3.7-1.7,5.6-.6,2.2-1.1,4.5-1.6,6.8,0,.4-.1.7-.2,1.1h0c0,.1,0,.3,0,.3v.3c0,0-.2.6-.2.6v.2c-.7,3.6-6,3.6-6.6,0v-.2c-.1-.5-.2-.8-.2-1h0c0-.1,0-.3,0-.3,0-.4-.1-.7-.2-1.1-.5-2.3-1-4.6-1.6-6.8-.5-1.9-1.1-3.8-1.7-5.6-10-30.1-33.7-53.7-63.7-63.7-1.9-.6-3.7-1.2-5.6-1.7h0Z"/>
  <path class="st1" d="M517.2,65.8c-1.1-.3-2.2-.6-3.3-.8-.2,0-.3,0-.5,0h-.1c-.1,0-.2,0-.5-.1h0c-1.8-.4-1.8-2.9,0-3.3h0c.2,0,.4,0,.5-.1h.1c.2,0,.3,0,.5-.1,1.1-.2,2.2-.5,3.3-.8.9-.2,1.9-.5,2.8-.8,14.8-4.9,26.5-16.6,31.5-31.5.3-.9.6-1.8.8-2.8.3-1.1.6-2.2.8-3.3,0-.2,0-.3,0-.5h0s0-.1,0-.1c0-.1,0-.2,0-.5h0c.3-1.9,2.9-1.9,3.3,0h0c0,.3,0,.5,0,.6h0c0,0,0,.1,0,.1,0,.2,0,.3,0,.5.2,1.1.5,2.2.8,3.3.2.9.5,1.9.8,2.8,4.9,14.8,16.6,26.5,31.5,31.4.9.3,1.8.6,2.8.8,1.1.3,2.2.6,3.3.8.2,0,.3,0,.5,0h.1c.1,0,.2,0,.5.1h0c1.8.4,1.8,2.9,0,3.3h0s-.3,0-.3,0h-.2s0,0,0,0h0c-.2,0-.3,0-.5.1-1.1.2-2.2.5-3.3.8-.9.2-1.9.5-2.8.8-14.8,4.9-26.5,16.6-31.5,31.4-.3.9-.6,1.8-.8,2.8-.3,1.1-.6,2.2-.8,3.3,0,.2,0,.3,0,.5h0c0,0,0,.1,0,.1v.2s0,.3,0,.3h0c-.3,1.9-2.9,1.9-3.3,0h0c0-.3,0-.5,0-.6h0c0,0,0-.1,0-.1,0-.2,0-.3,0-.5-.2-1.1-.5-2.2-.8-3.3-.2-.9-.5-1.9-.8-2.8-4.9-14.8-16.6-26.5-31.5-31.4-.9-.3-1.8-.6-2.8-.8h0Z"/>
</svg>